<?xml version="1.0" standalone="no"?>
<!DOCTYPE svg PUBLIC "-//W3C//DTD SVG 20010904//EN" "http://www.w3.org/TR/2001/REC-SVG-20010904/DTD/svg10.dtd">
<svg xmlns="http://www.w3.org/2000/svg" version="1.0" width="51.000000pt" height="56.000000pt" viewBox="0 0 51.000000 56.000000" preserveAspectRatio="xMidYMid meet">
<metadata>
Created by potrace 1.16, written by Peter Selinger 2001-2019
<meta name="Producer" content="Online-Convert"/></metadata>
<g transform="translate(0.000000,56.000000) scale(0.100000,-0.100000)" fill="#000000" stroke="none">
<path d="M0 280 l0 -280 255 0 255 0 0 280 0 280 -255 0 -255 0 0 -280z m142 120 c6 0 6 7 -2 18 -7 9 1 3 17 -14 28 -28 32 -30 64 -19 26 9 41 9 63 0 28 -12 33 -10 78 28 26 22 51 37 54 34 4 -4 -1 -9 -10 -13 -9 -3 -14 -10 -11 -14 6 -9 -18 -31 -37 -34 -33 -5 -38 -16 -19 -47 10 -17 17 -40 14 -52 -3 -13 -1 -18 4 -12 4 6 24 11 43 12 19 1 26 -1 16 -4 -15 -4 -16 -7 -5 -14 11 -7 11 -9 -3 -9 -10 0 -18 4 -18 10 0 6 -10 5 -25 -2 -13 -6 -22 -15 -19 -19 3 -5 0 -9 -6 -9 -6 0 -8 -5 -5 -10 4 -6 3 -10 -2 -9 -28 5 -23 -5 17 -31 25 -16 39 -30 32 -30 -7 0 -10 -5 -7 -10 4 -6 11 -7 17 -4 6 4 8 2 4 -4 -3 -5 0 -13 6 -15 8 -3 6 -6 -4 -6 -10 -1 -22 8 -28 19 -6 11 -8 20 -4 20 4 0 -5 9 -19 21 -22 16 -30 18 -48 9 -15 -8 -19 -9 -15 -1 4 6 1 11 -6 11 -7 1 0 8 15 16 46 25 56 84 21 125 -8 9 -11 19 -7 24 5 4 0 5 -9 2 -10 -4 -18 -3 -18 2 0 12 -51 -1 -76 -19 -19 -13 -36 -46 -39 -75 -1 -5 6 -18 14 -28 25 -30 22 -52 -8 -75 -23 -17 -29 -18 -27 -6 3 18 26 35 38 28 4 -3 8 0 8 5 0 6 -6 11 -12 11 -9 0 -8 4 2 10 13 9 7 14 -12 11 -5 0 -8 6 -8 14 0 8 -12 21 -27 29 -26 14 -26 15 -6 16 16 0 23 8 28 30 4 17 13 30 20 30 8 0 17 5 21 12 4 6 3 8 -4 4 -12 -7 -94 53 -99 74 -2 8 5 3 17 -12 12 -16 26 -28 32 -28z"/>
</g>
</svg>
