<svg version="1.1" id="Layer_1" xmlns="http://www.w3.org/2000/svg" xmlns:xlink="http://www.w3.org/1999/xlink" x="0px" y="0px"
	 width="100%" viewBox="0 0 51 56" enable-background="new 0 0 51 56" xml:space="preserve">
<path fill="#050E0D" opacity="1.000000" stroke="none" 
	d="
M27.000000,57.000000 
	C18.406929,57.000000 9.813859,57.000000 1.000000,57.000000 
	C1.000000,48.647072 1.000000,40.292202 1.237123,31.354801 
	C1.938262,30.524307 2.402279,30.276346 3.334486,30.119247 
	C4.040604,29.788313 4.278531,29.366512 4.765385,28.884880 
	C5.520196,28.872602 6.026081,28.920158 6.386040,29.047630 
	C6.148989,29.390882 6.234366,29.568750 6.628069,30.206062 
	C7.497589,30.796452 8.235286,30.841928 9.307779,30.955376 
	C10.284013,30.847216 10.925451,30.671085 11.701430,30.437857 
	C11.835971,30.380758 11.917050,30.099916 12.351275,30.073427 
	C13.364560,30.033594 13.943619,30.020248 14.747764,30.181622 
	C16.331236,31.059982 17.689623,31.763624 18.516146,32.312378 
	C17.788115,33.127861 17.591948,34.098228 17.283619,35.062447 
	C17.171459,35.056301 16.948505,35.091675 16.595335,35.155190 
	C15.530100,36.587376 14.818036,37.956051 14.023607,39.597374 
	C13.605694,40.330109 13.270144,40.790195 12.949019,41.240265 
	C12.963445,41.230244 12.927626,41.207779 12.757851,41.641090 
	C13.102332,42.626320 13.616589,43.178230 14.130844,43.730145 
	C14.456924,43.010025 14.783007,42.289909 15.088074,41.582512 
	C15.067059,41.595234 15.111921,41.621048 15.349326,41.544521 
	C15.586731,41.467995 15.461062,40.985214 15.660433,40.962971 
	C16.239233,40.815620 16.618662,40.690514 17.227463,40.347076 
	C17.744625,39.821377 18.032417,39.514000 18.585880,39.208096 
	C19.290405,38.955654 19.729258,38.701740 20.206074,38.323288 
	C20.244040,38.198750 20.092123,37.987259 20.287613,37.992233 
	C20.483101,37.997204 20.858667,37.888065 21.162853,37.920753 
	C21.670332,37.936924 21.873621,37.920414 22.291670,37.990284 
	C22.506428,38.076664 22.965523,38.136341 23.048796,38.381733 
	C23.423733,38.810398 23.715399,38.993675 23.948895,39.476688 
	C24.416037,41.517933 24.941347,43.259438 25.585190,45.325340 
	C26.013720,45.971889 26.323719,46.294041 26.878616,46.743973 
	C27.304146,46.907616 27.484776,46.943478 27.315163,47.177673 
	C26.959835,49.000938 26.954750,50.625870 27.094276,52.460052 
	C27.486599,53.112160 27.734310,53.555019 27.772875,54.246201 
	C27.375818,55.329685 27.187910,56.164841 27.000000,57.000000 
z"/>
<path fill="#040C0B" opacity="1.000000" stroke="none" 
	d="
M33.000000,1.000000 
	C39.278488,1.000000 45.556973,1.000000 52.000000,1.000000 
	C52.000000,11.353763 52.000000,21.708223 51.632774,32.559814 
	C47.186569,34.705734 43.107590,36.354523 38.956589,37.669704 
	C38.259914,35.891422 37.635265,34.446754 37.358711,32.999981 
	C39.103577,32.431763 40.500359,31.865648 42.326874,31.235916 
	C44.594120,30.827129 46.431633,30.481958 48.269146,30.136787 
	C48.236271,29.705921 48.203396,29.275055 48.170521,28.844189 
	C46.361172,28.289555 44.551819,27.734921 42.520508,27.018671 
	C40.570393,26.910587 38.842247,26.964119 37.031166,26.769173 
	C36.891445,26.177307 36.834652,25.833920 36.898685,25.208256 
	C37.035248,24.201935 37.050987,23.477890 37.066727,22.753845 
	C36.652931,22.927114 36.239140,23.100382 35.575722,23.122341 
	C35.225708,22.804331 35.125320,22.637627 34.844284,22.228863 
	C34.001266,20.966583 33.338890,19.946360 32.764862,18.746496 
	C32.853203,18.566856 32.992828,18.191616 33.203739,18.021524 
	C33.654976,17.582409 33.895298,17.313383 34.424400,17.039581 
	C35.099857,17.035463 35.486534,17.036125 35.914719,17.136875 
	C35.956226,17.236967 35.982906,17.452032 35.836037,17.943966 
	C36.305481,18.638689 36.921791,18.841480 37.786476,19.145233 
	C38.872948,19.494053 39.711040,19.741911 40.549133,19.989767 
	C40.194736,18.978872 39.840340,17.967979 39.496494,16.995087 
	C39.507046,17.033085 39.585896,17.035017 39.982391,16.835773 
	C40.443504,15.880481 40.508125,15.124432 40.991550,14.518864 
	C42.536217,13.627847 44.134212,12.525869 40.677280,12.013840 
	C38.192062,13.011121 36.100670,14.015528 33.833286,14.794280 
	C32.105640,12.394575 30.553982,10.220524 29.009628,8.029099 
	C29.016932,8.011723 29.039185,7.982443 29.139599,7.874527 
	C29.364288,7.464958 29.288916,7.211547 29.009430,6.630857 
	C29.002636,5.504251 29.000303,4.753166 28.998259,3.752004 
	C28.998198,3.335208 28.997850,3.168491 29.360287,2.996494 
	C30.815384,2.327477 31.907692,1.663739 33.000000,1.000000 
M42.913227,15.366454 
	C42.913227,15.366454 42.987820,15.626347 42.987820,15.626347 
	C42.987820,15.626347 43.073063,15.368206 42.913227,15.366454 
z"/>
<path fill="#050D0D" opacity="1.000000" stroke="none" 
	d="
M8.000000,1.000000 
	C12.689256,1.000000 17.378511,1.000000 22.536686,1.330416 
	C23.669397,2.442689 24.333189,3.224547 25.248291,4.006216 
	C25.667114,4.005003 25.834627,4.003979 26.001068,4.001489 
	C25.999996,4.000023 26.000940,3.999186 26.020691,4.325189 
	C26.092648,5.083396 26.144852,5.515602 26.209751,5.973091 
	C26.222448,5.998375 26.244370,5.978827 26.000084,6.528278 
	C25.850897,7.857695 25.945993,8.637662 25.953972,9.476360 
	C25.866854,9.535091 25.712860,9.678069 25.518116,9.566715 
	C21.661369,10.030432 24.190584,12.411277 23.701752,14.080702 
	C22.941721,14.783337 22.478268,15.403627 22.011074,16.351719 
	C22.014223,17.333881 22.021109,17.988245 21.741405,18.724873 
	C20.787642,19.221457 20.120464,19.635773 19.351051,19.718006 
	C18.586332,18.516308 17.923849,17.646690 17.223898,16.565897 
	C17.089199,16.061447 16.895134,15.862786 16.218685,15.382133 
	C14.844333,14.808776 13.855530,14.612017 12.505171,14.529948 
	C12.234974,15.096702 12.326332,15.548765 12.442883,15.997833 
	C12.468076,15.994839 12.503587,15.958596 12.895304,15.824837 
	C13.174723,15.210217 13.062423,14.729358 13.228551,14.092972 
	C13.345064,13.564867 13.183150,13.192290 12.848793,12.656911 
	C12.424798,12.297852 12.150191,12.142292 11.495996,11.997082 
	C10.759332,12.642868 10.379200,13.319003 9.992589,14.246342 
	C9.979082,14.664875 9.972054,14.832203 9.616987,14.972200 
	C8.646177,14.508946 7.478857,14.065233 7.484964,13.638308 
	C7.545256,9.423944 7.800210,5.212367 8.000000,1.000000 
z"/>
<path fill="#050F0F" opacity="1.000000" stroke="none" 
	d="
M12.503587,15.958596 
	C12.503587,15.958596 12.468076,15.994839 12.314934,16.243511 
	C12.179260,16.676207 12.196728,16.860231 11.918116,17.085335 
	C6.173940,20.795012 12.537272,22.389467 12.868702,25.210455 
	C12.521870,25.644535 12.281548,25.848219 11.630314,26.009636 
	C10.496049,25.998539 9.739945,25.991072 8.771755,25.789585 
	C7.708838,25.724581 6.858006,25.853600 6.004492,25.989277 
	C6.001809,25.995937 6.004694,26.012026 5.725798,26.071188 
	C4.975051,26.666348 4.503202,27.202345 3.690182,27.879105 
	C3.188106,28.689375 3.027200,29.358879 2.866295,30.028385 
	C2.402279,30.276346 1.938262,30.524307 1.237123,30.886135 
	C1.000000,29.933331 1.000000,28.866661 1.195900,27.185436 
	C1.261200,25.713919 1.130600,24.856960 1.000000,24.000000 
	C1.000000,17.645601 1.000000,11.291203 1.394941,4.467147 
	C3.193255,2.998326 4.596628,1.999163 6.000000,1.000000 
	C6.444445,1.000000 6.888889,1.000000 7.666667,1.000000 
	C7.800210,5.212367 7.545256,9.423944 7.484964,13.638308 
	C7.478857,14.065233 8.646177,14.508946 9.823004,14.977636 
	C10.377058,15.010405 10.787302,15.019569 11.009544,15.287474 
	C11.655721,15.689785 12.079654,15.824191 12.503587,15.958596 
z"/>
<path fill="#030D0D" opacity="1.000000" stroke="none" 
	d="
M52.000000,49.000000 
	C52.000000,51.594570 52.000000,54.189140 52.000000,57.000000 
	C48.992886,57.000000 45.983009,57.000000 42.463665,56.606529 
	C41.249737,54.285610 40.907753,50.959030 39.779652,50.666763 
	C34.132629,49.203747 36.590763,46.340778 38.255211,43.656929 
	C38.658237,43.700016 38.814381,43.578423 39.143059,43.550911 
	C39.692314,43.748749 40.069046,43.852505 40.414806,44.382641 
	C41.016632,44.531780 41.649429,44.254539 42.439705,43.977577 
	C42.597187,43.977859 42.912148,43.980087 43.070946,44.176224 
	C43.486397,44.586609 43.743046,44.800858 44.274521,45.231518 
	C47.032894,46.631950 49.516449,47.815975 52.000000,49.000000 
z"/>
<path fill="#030E0E" opacity="1.000000" stroke="none" 
	d="
M38.008331,43.492252 
	C36.590763,46.340778 34.132629,49.203747 39.779652,50.666763 
	C40.907753,50.959030 41.249737,54.285610 41.977100,56.606529 
	C39.629444,57.000000 37.258884,57.000000 34.382866,56.673523 
	C32.919861,54.898029 31.962315,53.449013 31.014791,51.666740 
	C30.687954,49.553482 30.351093,47.773487 30.015089,45.746773 
	C30.015945,45.500053 30.018723,45.006416 30.158039,44.895302 
	C30.197927,44.516335 30.098497,44.248486 29.795418,43.989311 
	C29.591764,43.997990 29.185783,44.035110 29.152855,43.702549 
	C29.095911,42.925083 29.071898,42.480183 29.224983,41.889328 
	C29.628736,41.535252 29.822294,41.299908 30.272057,40.894432 
	C31.702448,40.141678 32.843540,39.531822 34.123909,38.944206 
	C34.263184,38.966442 34.543873,38.994404 34.921852,39.231251 
	C36.052521,39.658146 36.805218,39.848194 37.541935,40.023018 
	C37.525959,40.007786 37.482819,40.017132 37.187202,40.265701 
	C37.053150,40.970474 37.214714,41.426682 37.239479,42.100082 
	C37.404568,42.708935 37.706451,43.100594 38.008331,43.492252 
z"/>
<path fill="#020D0C" opacity="1.000000" stroke="none" 
	d="
M40.445774,43.956261 
	C40.069046,43.852505 39.692314,43.748749 39.349648,43.331104 
	C39.287598,42.840553 39.191494,42.663895 39.178139,42.424988 
	C39.260883,42.362740 39.153358,42.185753 39.524559,42.099014 
	C39.625061,41.483765 39.354362,40.955261 39.152462,40.183655 
	C39.157318,39.784729 39.093384,39.628906 39.029984,39.228096 
	C39.025276,38.656517 39.024643,38.329922 39.028614,38.003315 
	C43.107590,36.354523 47.186569,34.705734 51.632774,33.028473 
	C52.000000,35.041668 52.000000,37.083332 51.622475,39.582661 
	C49.163345,40.692936 47.081749,41.345551 44.702339,42.079300 
	C43.907066,42.766987 43.409607,43.373539 42.912148,43.980087 
	C42.912148,43.980087 42.597187,43.977859 41.982437,43.799072 
	C41.060383,43.732277 40.753078,43.844269 40.445774,43.956261 
z"/>
<path fill="#040C0B" opacity="1.000000" stroke="none" 
	d="
M45.000153,41.998169 
	C47.081749,41.345551 49.163345,40.692936 51.622475,40.020161 
	C52.000000,42.700012 52.000000,45.400028 52.000000,48.550018 
	C49.516449,47.815975 47.032894,46.631950 44.278309,45.221542 
	C44.007275,44.995152 44.020226,44.981140 44.203392,44.845959 
	C44.618645,44.511547 44.816429,44.282673 44.984390,43.686516 
	C44.992626,42.898640 44.996387,42.448406 45.000153,41.998169 
z"/>
<path fill="#030D0D" opacity="1.000000" stroke="none" 
	d="
M31.004768,52.000000 
	C31.962315,53.449013 32.919861,54.898029 33.938705,56.673523 
	C31.958334,57.000000 29.916666,57.000000 27.437500,57.000000 
	C27.187910,56.164841 27.375818,55.329685 27.999828,54.420494 
	C29.292208,53.564304 30.148487,52.782154 31.004768,52.000000 
z"/>
<path fill="#050D0D" opacity="1.000000" stroke="none" 
	d="
M5.600004,1.000000 
	C4.596628,1.999163 3.193255,2.998326 1.394941,3.998744 
	C1.000000,3.555556 1.000000,3.111111 1.192757,2.194149 
	C1.628892,1.513914 1.833720,1.273370 2.000000,1.000000 
	C3.066669,1.000000 4.133338,1.000000 5.600004,1.000000 
z"/>
<path fill="#030D06" opacity="1.000000" stroke="none" 
	d="
M32.583336,1.000000 
	C31.907692,1.663739 30.815384,2.327477 29.110931,2.996057 
	C28.498791,3.000899 27.999771,3.000130 27.999937,2.666612 
	C28.000069,1.888729 28.000034,1.444365 28.000000,1.000000 
	C29.388889,1.000000 30.777779,1.000000 32.583336,1.000000 
z"/>
<path fill="#05110D" opacity="1.000000" stroke="none" 
	d="
M24.996979,4.006405 
	C24.333189,3.224547 23.669397,2.442689 23.002804,1.330416 
	C23.750000,1.000000 24.500000,1.000000 25.624807,1.333333 
	C25.999601,2.110783 25.999588,2.554900 25.999252,2.999900 
	C25.998930,3.000782 25.987848,3.009258 25.795952,3.147206 
	C25.361662,3.491872 25.159304,3.732289 24.996979,4.006405 
z"/>
<path fill="#070C0F" opacity="1.000000" stroke="none" 
	d="
M25.999573,2.999018 
	C25.999588,2.554900 25.999601,2.110783 25.999807,1.333333 
	C26.444336,1.000000 26.888672,1.000000 27.666504,1.000000 
	C28.000034,1.444365 28.000069,1.888729 27.666927,2.666559 
	C26.889025,2.999689 26.444300,2.999353 25.999573,2.999018 
z"/>
<path fill="#0A1112" opacity="1.000000" stroke="none" 
	d="
M1.000000,24.375000 
	C1.130600,24.856960 1.261200,25.713919 1.195900,26.785439 
	C1.000000,26.250000 1.000000,25.500000 1.000000,24.375000 
z"/>
<path fill="#050F0F" opacity="1.000000" stroke="none" 
	d="
M1.500000,1.000000 
	C1.833720,1.273370 1.628892,1.513914 1.192757,1.860816 
	C1.000000,1.666667 1.000000,1.333333 1.500000,1.000000 
z"/>
<path fill="#0E0600" opacity="1.000000" stroke="none" 
	d="
M19.048010,32.467266 
	C17.689623,31.763624 16.331236,31.059982 14.831729,30.202740 
	C14.690609,30.049141 14.780049,29.900961 15.144331,29.332521 
	C15.364092,28.337816 15.219570,27.911552 15.096466,27.456829 
	C15.240663,27.305490 15.349467,27.171324 16.094944,27.251236 
	C18.357929,26.220863 19.853643,24.958010 16.954082,23.438568 
	C16.915571,23.447866 16.872911,23.514635 17.136818,24.007618 
	C18.432823,23.672750 19.464926,22.844902 20.742294,22.127789 
	C21.659662,22.828556 22.331760,23.418589 23.015882,24.180984 
	C23.027906,24.353350 23.054888,24.697861 23.026997,24.780649 
	C22.999105,24.863438 22.955410,25.028824 22.875200,25.532619 
	C22.680387,26.356619 22.565784,26.676821 22.291405,27.263622 
	C22.608957,29.556498 22.646748,32.142334 26.354671,30.565495 
	C26.960566,30.455626 27.181925,30.325651 27.304062,30.597866 
	C27.801500,31.160093 28.398163,31.320129 28.916965,31.789429 
	C28.543661,33.335968 28.248213,34.573250 27.962105,35.896496 
	C27.971445,35.982464 28.009510,36.151176 27.702009,36.210991 
	C26.977716,36.292294 26.560923,36.313778 25.806946,36.218605 
	C24.996378,36.090103 24.522993,36.078251 23.706978,36.007248 
	C22.904030,35.976730 22.443716,36.005367 21.899010,35.842453 
	C21.675016,35.350109 21.443081,35.234409 20.858166,35.180508 
	C20.413124,35.002907 20.228725,34.948612 19.837961,34.624702 
	C19.437065,33.725807 19.242538,33.096539 19.048010,32.467266 
z"/>
<path fill="#0A0A03" opacity="1.000000" stroke="none" 
	d="
M31.014791,51.666740 
	C30.148487,52.782154 29.292208,53.564304 28.208973,54.172165 
	C27.734310,53.555019 27.486599,53.112160 27.441479,52.297352 
	C28.130110,50.256329 28.616150,48.587261 29.184799,46.693512 
	C29.267406,46.468838 29.362846,45.999454 29.525700,45.998520 
	C29.688551,45.997589 30.014235,45.993488 30.014233,45.993488 
	C30.351093,47.773487 30.687954,49.553482 31.014791,51.666740 
z"/>
<path fill="#907B40" opacity="1.000000" stroke="none" 
	d="
M24.049610,36.066399 
	C24.522993,36.078251 24.996378,36.090103 25.992020,36.297615 
	C27.012691,36.379246 27.511101,36.265213 28.009510,36.151176 
	C28.009510,36.151176 27.971445,35.982464 28.237322,35.885040 
	C28.683521,35.752319 28.863842,35.717026 29.260323,35.708260 
	C29.476480,35.734783 29.893192,35.607838 30.022388,36.067123 
	C30.208084,37.159534 30.264584,37.792664 30.083080,38.627857 
	C29.231005,38.877201 28.616932,38.924480 27.909912,39.011330 
	C27.816965,39.050900 27.865171,38.722023 27.865171,38.722023 
	C27.865171,38.722023 27.985128,38.995354 28.021725,39.449097 
	C28.063131,40.807880 28.067944,41.712925 27.802694,42.665722 
	C27.489470,42.535809 27.446306,42.358143 27.238617,41.748997 
	C26.941931,41.039471 26.809771,40.761425 26.592657,40.400345 
	C26.507706,40.317310 26.110966,40.050442 25.904770,39.834354 
	C25.134739,39.471161 24.570902,39.324055 24.007065,39.176949 
	C23.715399,38.993675 23.423733,38.810398 23.070129,38.091248 
	C23.057682,37.368282 23.107174,37.181194 23.342918,36.879658 
	C23.764761,36.578560 23.938240,36.345623 24.049610,36.066399 
z"/>
<path fill="#0B0701" opacity="1.000000" stroke="none" 
	d="
M27.403143,42.180477 
	C27.446306,42.358143 27.489470,42.535809 27.793137,42.632164 
	C28.053642,42.550858 28.038597,42.482750 27.734955,42.026958 
	C26.962826,42.378979 26.494339,43.186794 25.863737,44.233791 
	C25.623301,44.648964 25.544981,44.824951 25.466660,45.000942 
	C24.941347,43.259438 24.416037,41.517933 23.948895,39.476688 
	C24.570902,39.324055 25.134739,39.471161 25.878788,40.069756 
	C26.059000,40.521248 26.214647,40.970417 26.221642,41.390800 
	C26.620138,41.934284 27.011641,42.057381 27.403143,42.180477 
z"/>
<path fill="#90856A" opacity="1.000000" stroke="none" 
	d="
M29.102190,46.918190 
	C28.616150,48.587261 28.130110,50.256329 27.296867,52.088100 
	C26.954750,50.625870 26.959835,49.000938 27.289841,47.173645 
	C27.614761,46.971287 27.563385,46.971024 27.944920,46.865551 
	C28.585032,46.812782 28.843611,46.865486 29.102190,46.918190 
z"/>
<path fill="#030500" opacity="1.000000" stroke="none" 
	d="
M4.031352,27.738342 
	C4.503202,27.202345 4.975051,26.666348 5.919359,26.269733 
	C7.092155,26.603535 7.792494,26.797953 8.534389,27.079897 
	C8.575946,27.167423 8.722169,27.294588 8.655367,27.367626 
	C8.588565,27.440666 8.494470,27.614834 8.430719,27.573210 
	C8.366970,27.531586 8.175557,27.729563 7.645329,27.880695 
	C6.920722,28.343788 6.726344,28.655752 6.531966,28.967714 
	C6.026081,28.920158 5.520196,28.872602 4.763703,28.535183 
	C4.352515,28.076326 4.191934,27.907335 4.031352,27.738342 
z"/>
<path fill="#0B0902" opacity="1.000000" stroke="none" 
	d="
M14.105972,39.324722 
	C14.818036,37.956051 15.530100,36.587376 16.631428,35.542305 
	C17.078781,36.382843 17.136873,36.899784 17.156742,37.562614 
	C17.118517,37.708504 16.960197,37.965534 16.953266,37.910915 
	C16.946335,37.856297 16.836330,37.861275 16.539204,37.952431 
	C15.981883,38.360931 15.721687,38.678272 15.481510,38.992050 
	C15.501528,38.988491 15.509654,38.948650 15.154059,39.025223 
	C14.567634,39.176105 14.336802,39.250416 14.105972,39.324722 
z"/>
<path fill="#917958" opacity="1.000000" stroke="none" 
	d="
M15.075048,27.485287 
	C15.219570,27.911552 15.364092,28.337816 14.809311,29.086243 
	C13.379023,29.638908 12.648036,29.869413 11.917050,30.099916 
	C11.917050,30.099916 11.835971,30.380758 11.451676,30.250771 
	C10.896308,30.002403 10.725234,29.884026 10.391343,29.607912 
	C9.803381,29.240898 9.378236,29.031622 8.838012,28.520628 
	C8.646778,28.017551 8.570623,27.816193 8.494470,27.614834 
	C8.494470,27.614834 8.588565,27.440666 9.056913,27.462944 
	C10.073977,27.498423 10.622694,27.511623 11.645603,27.568504 
	C13.104880,27.569887 14.089965,27.527586 15.075048,27.485287 
z"/>
<path fill="#917958" opacity="1.000000" stroke="none" 
	d="
M18.516146,32.312378 
	C19.242538,33.096539 19.437065,33.725807 19.843887,34.966606 
	C20.045294,35.805767 20.034410,36.033405 20.075539,36.546280 
	C20.115742,37.216770 20.103933,37.602013 20.092123,37.987259 
	C20.092123,37.987259 20.244040,38.198750 19.899616,38.255703 
	C19.378166,38.201584 19.201141,38.090508 18.960161,37.844482 
	C18.896208,37.709534 18.910898,37.409966 18.906918,37.109543 
	C18.904297,36.608829 18.905661,36.408535 18.773621,35.981949 
	C18.383480,35.519001 18.126747,35.282349 17.751396,35.050194 
	C17.632778,35.054695 17.395781,35.068596 17.395781,35.068596 
	C17.591948,34.098228 17.788115,33.127861 18.516146,32.312378 
z"/>
<path fill="#967F5F" opacity="1.000000" stroke="none" 
	d="
M15.109089,41.569790 
	C14.783007,42.289909 14.456924,43.010025 14.130844,43.730145 
	C13.616589,43.178230 13.102332,42.626320 13.131824,41.514778 
	C14.153410,41.160030 14.631249,41.364910 15.109089,41.569790 
z"/>
<path fill="#ABA275" opacity="1.000000" stroke="none" 
	d="
M20.287613,37.992233 
	C20.103933,37.602013 20.115742,37.216770 20.300144,36.433594 
	C20.784496,35.876736 20.999853,35.632786 21.118811,35.303810 
	C21.443081,35.234409 21.675016,35.350109 21.895050,36.080833 
	C21.975485,36.510761 22.013021,36.986095 22.007504,36.992027 
	C22.001986,36.997963 22.023487,36.975365 21.778955,37.049767 
	C21.309172,37.378803 21.083920,37.633434 20.858667,37.888065 
	C20.858667,37.888065 20.483101,37.997204 20.287613,37.992233 
z"/>
<path fill="#1C0100" opacity="1.000000" stroke="none" 
	d="
M18.907026,36.208241 
	C18.905661,36.408535 18.904297,36.608829 18.628250,37.031651 
	C17.967367,37.308361 17.581165,37.362541 17.194965,37.416721 
	C17.136873,36.899784 17.078781,36.382843 16.984596,35.478790 
	C16.948505,35.091675 17.171459,35.056301 17.283619,35.062447 
	C17.395781,35.068596 17.632778,35.054695 17.826038,35.318733 
	C18.315207,35.791260 18.611116,35.999748 18.907026,36.208241 
z"/>
<path fill="#1A0100" opacity="1.000000" stroke="none" 
	d="
M15.509653,38.948650 
	C15.509654,38.948650 15.501528,38.988491 15.553174,39.097000 
	C15.604820,39.205505 15.833935,39.095909 15.642725,39.512177 
	C15.960187,39.982105 16.468859,40.035767 16.873682,40.213127 
	C16.769835,40.336830 16.998091,40.565403 16.998091,40.565403 
	C16.618662,40.690514 16.239233,40.815620 16.055866,40.708340 
	C16.004503,39.966850 15.757078,39.457752 15.509653,38.948650 
z"/>
<path fill="#967F5F" opacity="1.000000" stroke="none" 
	d="
M15.154058,39.025223 
	C15.757078,39.457752 16.004503,39.966850 15.856497,40.730583 
	C15.461062,40.985214 15.586731,41.467995 14.948911,41.687492 
	C13.852259,41.688084 13.393426,41.469185 12.934594,41.250282 
	C13.270144,40.790195 13.605694,40.330109 14.023608,39.597374 
	C14.336802,39.250416 14.567634,39.176105 15.154058,39.025223 
z"/>
<path fill="#7F6C4B" opacity="1.000000" stroke="none" 
	d="
M25.585190,45.325340 
	C25.544981,44.824951 25.623301,44.648964 26.222200,44.335144 
	C26.980461,44.269344 27.218140,44.341373 27.483875,44.149399 
	C27.685209,43.849323 27.858484,43.813244 27.683613,44.487595 
	C27.101549,45.670746 26.867634,46.143471 26.633717,46.616192 
	C26.323719,46.294041 26.013720,45.971889 25.585190,45.325340 
z"/>
<path fill="#9D8548" opacity="1.000000" stroke="none" 
	d="
M12.351275,30.073427 
	C12.648036,29.869413 13.379023,29.638908 14.445028,29.654682 
	C14.780049,29.900961 14.690609,30.049141 14.606644,30.028023 
	C13.943619,30.020248 13.364560,30.033594 12.351275,30.073427 
z"/>
<path fill="#887B5B" opacity="1.000000" stroke="none" 
	d="
M26.878616,46.743973 
	C26.867634,46.143471 27.101549,45.670746 27.941422,44.589474 
	C28.658947,44.129433 28.770515,44.277935 28.728397,44.883080 
	C28.237604,45.883488 27.900494,46.427258 27.563385,46.971024 
	C27.563385,46.971024 27.614761,46.971287 27.640083,46.975311 
	C27.484776,46.943478 27.304146,46.907616 26.878616,46.743973 
z"/>
<path fill="#917958" opacity="1.000000" stroke="none" 
	d="
M11.317136,30.307869 
	C10.925451,30.671085 10.284013,30.847216 9.323390,30.734367 
	C9.004205,30.445387 9.002360,30.002253 9.266207,29.974216 
	C9.871422,29.886002 10.212791,29.825825 10.554160,29.765650 
	C10.725234,29.884026 10.896308,30.002403 11.317136,30.307869 
z"/>
<path fill="#624D0E" opacity="1.000000" stroke="none" 
	d="
M19.024115,37.979435 
	C19.201141,38.090508 19.378166,38.201584 19.861652,38.380241 
	C19.729258,38.701740 19.290405,38.955654 18.591709,39.003098 
	C18.331867,38.796631 18.283194,38.390789 18.480635,38.309944 
	C18.678076,38.229103 19.024115,37.979435 19.024115,37.979435 
z"/>
<path fill="#967F5F" opacity="1.000000" stroke="none" 
	d="
M18.283194,38.390789 
	C18.283194,38.390789 18.331867,38.796631 18.326038,39.001625 
	C18.032417,39.514000 17.744625,39.821377 17.227463,40.347076 
	C16.998091,40.565403 16.769835,40.336830 16.850174,39.815002 
	C16.943106,39.027931 16.955698,38.762680 16.935909,38.338264 
	C16.903526,38.179100 16.836330,37.861275 16.836330,37.861275 
	C16.836330,37.861275 16.946335,37.856297 17.297857,37.973816 
	C17.860649,38.191147 18.071920,38.290966 18.283194,38.390789 
z"/>
<path fill="#1A0100" opacity="1.000000" stroke="none" 
	d="
M12.949019,41.240265 
	C13.393426,41.469185 13.852259,41.688084 14.711506,41.764015 
	C15.111921,41.621048 15.067059,41.595234 15.088074,41.582512 
	C14.631249,41.364910 14.153410,41.160030 13.301599,41.081467 
	C12.927626,41.207779 12.963445,41.230244 12.949019,41.240265 
z"/>
<path fill="#756448" opacity="1.000000" stroke="none" 
	d="
M3.690181,27.879105 
	C4.191934,27.907335 4.352515,28.076326 4.514776,28.595016 
	C4.278531,29.366512 4.040604,29.788313 3.334486,30.119247 
	C3.027200,29.358879 3.188106,28.689375 3.690181,27.879105 
z"/>
<path fill="#B39A68" opacity="1.000000" stroke="none" 
	d="
M9.002360,30.002253 
	C9.002360,30.002253 9.004205,30.445387 8.988594,30.666397 
	C8.235286,30.841928 7.497589,30.796452 6.999410,30.325684 
	C7.495984,29.934731 7.753040,29.969070 8.257159,30.011396 
	C8.504223,30.019384 8.999229,29.999210 8.999624,29.999615 
	C9.000018,30.000017 9.002360,30.002253 9.002360,30.002253 
z"/>
<path fill="#967F5F" opacity="1.000000" stroke="none" 
	d="
M6.386040,29.047630 
	C6.726344,28.655752 6.920722,28.343788 7.619774,28.201014 
	C8.091530,28.581518 8.058613,28.792833 8.010986,29.253716 
	C8.000883,29.669991 8.005489,29.836700 8.010096,30.003408 
	C7.753040,29.969070 7.495984,29.934731 6.867587,29.780773 
	C6.234366,29.568750 6.148989,29.390882 6.386040,29.047630 
z"/>
<path fill="#7A6B3A" opacity="1.000000" stroke="none" 
	d="
M21.162853,37.920753 
	C21.083920,37.633434 21.309172,37.378803 21.785782,37.282501 
	C22.037138,37.440834 22.076912,37.903904 22.076912,37.903904 
	C21.873621,37.920414 21.670332,37.936924 21.162853,37.920753 
z"/>
<path fill="#ABA275" opacity="1.000000" stroke="none" 
	d="
M22.291670,37.990284 
	C22.076912,37.903904 22.037138,37.440834 22.030312,37.208099 
	C22.023487,36.975365 22.001986,36.997963 22.293421,36.993286 
	C22.775459,36.990444 22.966061,36.992275 23.156664,36.994106 
	C23.107174,37.181194 23.057682,37.368282 22.986858,37.845856 
	C22.965523,38.136341 22.506428,38.076664 22.291670,37.990284 
z"/>
<path fill="#080E0B" opacity="1.000000" stroke="none" 
	d="
M34.135624,17.044359 
	C33.895298,17.313383 33.654976,17.582409 32.821842,17.956331 
	C31.451971,18.041174 30.674908,18.021118 29.637527,17.896358 
	C28.889347,17.527309 28.401480,17.262964 27.884409,16.820713 
	C27.910177,16.374613 27.824799,16.163065 27.682077,15.435534 
	C27.162033,14.838060 26.558977,14.813216 25.952633,14.704584 
	C25.949341,14.620795 25.953924,14.453152 26.284491,14.853373 
	C26.834011,14.305865 27.052963,13.358139 27.221056,12.419355 
	C27.170197,12.428300 27.119038,12.518020 27.316326,12.121244 
	C27.329082,11.493784 27.144550,11.263098 26.979519,11.014879 
	C26.999020,10.997346 27.027639,10.953395 27.421108,10.976381 
	C27.869875,10.507541 27.925175,10.015714 28.052113,9.303493 
	C28.416607,8.737559 28.709467,8.392015 29.002323,8.046473 
	C30.553982,10.220524 32.105640,12.394575 33.839462,15.131971 
	C34.059624,16.144999 34.097622,16.594679 34.135624,17.044359 
z"/>
<path fill="#140500" opacity="1.000000" stroke="none" 
	d="
M32.676517,18.926136 
	C33.338890,19.946360 34.001266,20.966583 34.322754,22.195183 
	C33.760815,22.998516 33.539757,23.593473 33.352497,24.416765 
	C33.386292,24.645100 33.728802,24.956253 33.768581,25.297203 
	C33.810913,26.092232 33.813469,26.546307 33.469517,27.000278 
	C32.430004,26.999060 31.736994,26.997948 30.659264,26.809631 
	C30.007504,26.722578 29.740467,26.822725 29.693275,26.699036 
	C29.487226,26.283751 29.061333,26.092304 28.643456,25.409187 
	C28.090572,24.778475 27.529678,24.639437 27.136047,24.233452 
	C27.550352,22.959747 27.797398,21.952990 28.225607,20.946480 
	C28.406773,20.946726 28.768246,20.951954 28.768246,20.951954 
	C28.768246,20.951954 29.109400,20.832380 29.658443,20.694597 
	C30.360727,20.211950 30.513971,19.867086 30.681576,19.473619 
	C30.695934,19.425014 30.444014,19.207706 30.511051,19.165531 
	C30.578091,19.123354 30.507847,18.981377 30.779472,18.973476 
	C31.592905,18.952429 32.134712,18.939283 32.676517,18.926136 
z"/>
<path fill="#110901" opacity="1.000000" stroke="none" 
	d="
M38.956589,37.669704 
	C39.024643,38.329922 39.025276,38.656517 38.574120,39.167332 
	C37.906086,39.573418 37.694454,39.795273 37.482819,40.017132 
	C37.482819,40.017132 37.525959,40.007786 37.482666,39.415527 
	C36.474209,38.880310 35.509041,38.937359 34.543873,38.994404 
	C34.543873,38.994404 34.263184,38.966442 34.126011,38.845581 
	C33.988838,38.724724 34.002972,38.526684 34.231636,38.152908 
	C33.796413,37.857952 33.132526,37.936775 32.483467,38.009689 
	C32.498299,38.003788 32.515579,38.030632 32.728622,37.511673 
	C32.832634,36.634842 32.723598,36.276966 32.654282,35.636337 
	C32.453583,35.083023 32.213165,34.812469 32.031868,34.442074 
	C32.090992,34.342232 32.420929,34.018112 32.893143,34.214920 
	C33.587219,33.923328 33.809078,33.434933 34.022408,32.975346 
	C34.013878,33.004158 33.953899,33.007904 34.282452,33.260406 
	C35.097363,33.347225 35.583725,33.181545 36.305218,33.012428 
	C36.540352,33.008987 37.010616,33.002087 37.010620,33.002087 
	C37.635265,34.446754 38.259914,35.891422 38.956589,37.669704 
z"/>
<path fill="#110602" opacity="1.000000" stroke="none" 
	d="
M34.424400,17.039581 
	C34.097622,16.594679 34.059624,16.144999 34.015450,15.357626 
	C36.100670,14.015528 38.192062,13.011121 40.541306,12.221678 
	C40.557827,12.665427 40.293461,12.863455 39.755737,13.081310 
	C39.320602,13.406878 39.135792,13.681858 38.733192,14.088726 
	C38.270676,14.455678 38.025940,14.690742 37.561623,14.983821 
	C37.070396,15.214956 36.905376,15.459895 36.738167,15.811955 
	C36.629353,15.847260 36.444298,15.981803 36.366875,16.166744 
	C36.165833,16.589243 36.027088,16.817610 35.873215,17.036785 
	C35.486534,17.036125 35.099857,17.035463 34.424400,17.039581 
z"/>
<path fill="#997D51" opacity="1.000000" stroke="none" 
	d="
M42.742470,27.180286 
	C44.551819,27.734921 46.361172,28.289555 48.170521,28.844189 
	C48.203396,29.275055 48.236271,29.705921 48.269146,30.136787 
	C46.431633,30.481958 44.594120,30.827129 42.343327,31.155315 
	C41.930046,31.138329 41.993237,30.986395 41.997894,30.739727 
	C42.002552,30.493061 41.996746,29.999641 42.140831,29.895500 
	C42.185352,29.523373 42.085789,29.255388 41.994576,28.993408 
	C42.002930,28.999413 42.010052,29.018726 41.959827,28.718353 
	C41.916100,28.215054 41.922592,28.012127 42.154995,27.681154 
	C42.501427,27.428835 42.621948,27.304562 42.742470,27.180286 
z"/>
<path fill="#110B02" opacity="1.000000" stroke="none" 
	d="
M29.009628,8.029098 
	C28.709467,8.392015 28.416607,8.737559 27.514999,9.109558 
	C26.946714,9.741808 26.987177,10.347601 27.027639,10.953395 
	C27.027639,10.953395 26.999020,10.997346 26.857313,10.621516 
	C26.449696,10.314869 26.183786,10.384050 25.842115,10.265924 
	C25.766352,10.078615 25.712860,9.678069 25.712860,9.678069 
	C25.712860,9.678069 25.866854,9.535091 26.585079,9.358713 
	C26.962999,8.138100 26.622694,7.093863 26.263031,6.050094 
	C26.243675,6.050561 26.197054,5.947807 26.197054,5.947807 
	C26.144852,5.515602 26.092648,5.083396 26.395344,4.325778 
	C27.499485,4.000936 28.248728,4.001508 28.997971,4.002081 
	C29.000303,4.753166 29.002636,5.504251 29.013226,6.874871 
	C29.021481,7.494406 29.039185,7.982443 29.039185,7.982443 
	C29.039185,7.982443 29.016932,8.011723 29.009628,8.029098 
z"/>
<path fill="#060701" opacity="1.000000" stroke="none" 
	d="
M35.914719,17.136875 
	C36.027088,16.817610 36.165833,16.589243 36.366898,16.777567 
	C37.458210,17.121328 38.472076,17.039207 39.485943,16.957085 
	C39.840340,17.967979 40.194736,18.978872 40.549133,19.989767 
	C39.711040,19.741911 38.872948,19.494053 37.855164,18.658039 
	C37.111286,17.863934 36.547096,17.657984 35.982906,17.452032 
	C35.982906,17.452032 35.956226,17.236967 35.914719,17.136875 
z"/>
<path fill="#090A01" opacity="1.000000" stroke="none" 
	d="
M37.358707,32.999981 
	C37.010616,33.002087 36.540352,33.008987 36.261139,32.651001 
	C36.338921,31.700283 36.695911,31.107553 37.464035,30.575981 
	C39.247856,30.753557 40.620544,30.869976 41.993237,30.986395 
	C41.993237,30.986395 41.930046,31.138329 41.913589,31.218931 
	C40.500359,31.865648 39.103577,32.431763 37.358707,32.999981 
z"/>
<path fill="#0C0401" opacity="1.000000" stroke="none" 
	d="
M42.520508,27.018671 
	C42.621948,27.304562 42.501427,27.428835 41.839165,27.626347 
	C40.878082,27.762541 40.458740,27.825491 39.763668,27.905546 
	C39.320255,27.998808 39.152569,28.074965 38.640629,28.080126 
	C37.760883,27.625710 37.225395,27.242287 36.792393,26.908070 
	C36.894882,26.957277 37.114098,27.017653 37.114098,27.017653 
	C38.842247,26.964119 40.570393,26.910587 42.520508,27.018671 
z"/>
<path fill="#0C0401" opacity="1.000000" stroke="none" 
	d="
M35.825344,23.273651 
	C36.239140,23.100382 36.652931,22.927114 37.066727,22.753845 
	C37.050987,23.477890 37.035248,24.201935 36.693756,25.107668 
	C36.368004,25.289356 35.984459,25.042179 35.992668,24.766178 
	C35.914665,24.327532 35.828461,24.164888 35.764782,23.820295 
	C35.787308,23.638348 35.825344,23.273649 35.825344,23.273651 
z"/>
<path fill="#897F6D" opacity="1.000000" stroke="none" 
	d="
M40.006058,13.030724 
	C40.293461,12.863455 40.557827,12.665427 40.935127,12.228803 
	C44.134212,12.525869 42.536217,13.627847 40.840950,14.428167 
	C40.271553,14.186989 39.988182,13.988242 39.984005,13.748701 
	C39.979828,13.509160 40.006058,13.030724 40.006058,13.030724 
z"/>
<path fill="#0E100F" opacity="1.000000" stroke="none" 
	d="
M28.998259,3.752004 
	C28.248728,4.001508 27.499485,4.000936 26.375591,3.999775 
	C26.000940,3.999186 25.999996,4.000023 25.997448,3.753047 
	C25.994900,3.506072 25.987848,3.009258 25.987848,3.009258 
	C25.987848,3.009258 25.998930,3.000782 25.999252,2.999900 
	C26.444300,2.999353 26.889025,2.999689 27.666761,3.000077 
	C27.999771,3.000130 28.498791,3.000899 28.748146,3.001336 
	C28.997850,3.168491 28.998198,3.335208 28.998259,3.752004 
z"/>
<path fill="#897F6D" opacity="1.000000" stroke="none" 
	d="
M37.781204,14.925806 
	C38.025940,14.690742 38.270676,14.455678 38.992344,14.100283 
	C39.642250,13.982716 39.815216,13.985479 39.988182,13.988242 
	C39.988182,13.988242 40.271553,14.186989 40.422150,14.277685 
	C40.508125,15.124432 40.443504,15.880481 39.856022,16.515507 
	C39.189301,16.215292 39.045441,16.036104 38.725204,15.690233 
	C38.321686,15.287413 38.065811,15.088164 37.781204,14.925806 
z"/>
<path fill="#120100" opacity="1.000000" stroke="none" 
	d="
M32.764862,18.746498 
	C32.134712,18.939283 31.592905,18.952429 30.613060,18.737213 
	C30.082628,18.339588 29.990236,18.170326 29.897844,18.001062 
	C30.674908,18.021118 31.451971,18.041174 32.610931,18.126423 
	C32.992828,18.191616 32.853203,18.566856 32.764862,18.746498 
z"/>
<path fill="#9F8F64" opacity="1.000000" stroke="none" 
	d="
M35.984459,25.042179 
	C35.984459,25.042179 36.368004,25.289356 36.572933,25.389946 
	C36.834652,25.833920 36.891445,26.177307 37.031166,26.769173 
	C37.114098,27.017653 36.894882,26.957277 36.633347,26.714706 
	C36.242691,25.995485 36.113575,25.518831 35.984459,25.042179 
z"/>
<path fill="#A28B60" opacity="1.000000" stroke="none" 
	d="
M39.496494,16.995085 
	C38.472076,17.039207 37.458210,17.121328 36.444321,16.592627 
	C36.444298,15.981803 36.629353,15.847260 37.081306,15.830511 
	C37.989368,15.828147 38.445477,15.842532 38.901581,15.856916 
	C39.045441,16.036104 39.189301,16.215292 39.459526,16.714748 
	C39.585896,17.035017 39.507046,17.033085 39.496494,16.995085 
z"/>
<path fill="#080300" opacity="1.000000" stroke="none" 
	d="
M42.993145,15.367331 
	C43.073063,15.368206 42.987820,15.626347 42.987820,15.626347 
	C42.987820,15.626347 42.913227,15.366454 42.993145,15.367331 
z"/>
<path fill="#AB9566" opacity="1.000000" stroke="none" 
	d="
M35.575722,23.122341 
	C35.825344,23.273649 35.787308,23.638348 35.360077,23.834478 
	C34.394794,24.083218 33.856750,24.135824 33.318703,24.188431 
	C33.539757,23.593473 33.760815,22.998516 34.503399,22.437241 
	C35.125320,22.637627 35.225708,22.804331 35.575722,23.122341 
z"/>
<path fill="#080E0B" opacity="1.000000" stroke="none" 
	d="
M29.139599,7.874527 
	C29.039185,7.982443 29.021481,7.494406 29.017685,7.250393 
	C29.288916,7.211547 29.364288,7.464958 29.139599,7.874527 
z"/>
<path fill="#A28B60" opacity="1.000000" stroke="none" 
	d="
M35.836037,17.943966 
	C36.547096,17.657984 37.111286,17.863934 37.606789,18.557076 
	C36.921791,18.841480 36.305481,18.638689 35.836037,17.943966 
z"/>
<path fill="#140B03" opacity="1.000000" stroke="none" 
	d="
M23.003857,24.008621 
	C22.331760,23.418589 21.659662,22.828556 21.096685,21.830692 
	C20.621634,20.965273 20.037462,20.507681 19.453289,20.050089 
	C20.120464,19.635773 20.787642,19.221457 21.891218,18.808784 
	C22.327620,18.810429 22.618753,18.993166 22.674961,19.336601 
	C23.176020,20.202345 23.620871,20.724653 23.994045,21.534702 
	C23.616196,22.551170 23.310026,23.279896 23.003857,24.008621 
z"/>
<path fill="#AB8E5F" opacity="1.000000" stroke="none" 
	d="
M19.351051,19.718006 
	C20.037462,20.507681 20.621634,20.965273 20.851418,21.719959 
	C19.464926,22.844902 18.432823,23.672750 17.237865,23.648266 
	C18.648178,20.994974 18.163191,19.810234 15.874073,18.981422 
	C15.769426,18.828522 15.554175,18.526890 15.817749,18.215683 
	C16.474670,17.528675 16.868017,17.152874 17.261366,16.777075 
	C17.923849,17.646690 18.586332,18.516308 19.351051,19.718006 
z"/>
<path fill="#080501" opacity="1.000000" stroke="none" 
	d="
M25.518116,9.566715 
	C25.712860,9.678069 25.766352,10.078615 25.870125,10.618776 
	C26.006573,11.392709 26.039249,11.626479 25.982630,12.173565 
	C25.983112,12.684651 26.072887,12.882422 26.081173,13.131274 
	C25.999683,13.182355 25.881712,13.030427 25.704899,13.167185 
	C25.310820,13.511873 25.128473,13.746899 24.735359,14.006866 
	C24.489676,14.004714 23.998329,13.998360 23.998329,13.998360 
	C24.190584,12.411277 21.661369,10.030432 25.518116,9.566715 
z"/>
<path fill="#030B06" opacity="1.000000" stroke="none" 
	d="
M23.701752,14.080702 
	C23.998329,13.998360 24.489676,14.004714 24.739973,14.363670 
	C25.001379,15.436659 25.012489,16.150690 24.790895,16.955585 
	C24.558193,17.046448 24.074503,17.172880 23.871040,16.947325 
	C23.116655,16.489153 22.565735,16.256535 22.014814,16.023918 
	C22.478268,15.403627 22.941721,14.783337 23.701752,14.080702 
z"/>
<path fill="#756448" opacity="1.000000" stroke="none" 
	d="
M13.021237,12.819713 
	C13.183150,13.192290 13.345064,13.564867 12.655429,14.006207 
	C11.422985,14.088424 11.042090,14.101878 10.495275,14.087427 
	C10.329353,14.059520 9.999067,13.995138 9.999067,13.995138 
	C10.379200,13.319003 10.759332,12.642868 11.628252,12.213573 
	C12.418439,12.580181 12.719838,12.699947 13.021237,12.819713 
z"/>
<path fill="#140500" opacity="1.000000" stroke="none" 
	d="
M22.011074,16.351719 
	C22.565735,16.256535 23.116655,16.489153 23.739407,17.164059 
	C23.694868,17.728775 23.578497,17.851204 23.260208,18.087830 
	C22.789278,18.397682 22.642767,18.661394 22.618753,18.993166 
	C22.618753,18.993166 22.327620,18.810429 22.177807,18.726517 
	C22.021109,17.988245 22.014223,17.333881 22.011074,16.351719 
z"/>
<path fill="#856C3F" opacity="1.000000" stroke="none" 
	d="
M17.223898,16.565897 
	C16.868017,17.152874 16.474670,17.528675 15.656388,18.193230 
	C15.231455,18.481985 14.965699,18.293516 14.918844,18.126663 
	C14.871988,17.959810 14.696976,17.660625 14.975357,17.306473 
	C15.703904,16.554457 16.154070,16.156595 16.604235,15.758733 
	C16.895134,15.862786 17.089199,16.061447 17.223898,16.565897 
z"/>
<path fill="#8C7857" opacity="1.000000" stroke="none" 
	d="
M16.218685,15.382133 
	C16.154070,16.156595 15.703904,16.554457 14.716127,17.257099 
	C14.003806,17.569338 13.829094,17.576796 13.607183,17.559650 
	C13.559984,17.535049 13.538129,17.430866 13.536652,16.905182 
	C13.312359,15.724751 13.089542,15.070004 12.866726,14.415257 
	C13.855530,14.612017 14.844333,14.808776 16.218685,15.382133 
z"/>
<path fill="#665F45" opacity="1.000000" stroke="none" 
	d="
M26.282389,6.049626 
	C26.622694,7.093863 26.962999,8.138100 26.672199,9.299982 
	C25.945993,8.637662 25.850897,7.857695 26.029486,6.538794 
	C26.303171,5.999860 26.282389,6.049626 26.282389,6.049626 
z"/>
<path fill="#8C7857" opacity="1.000000" stroke="none" 
	d="
M10.661196,14.115334 
	C11.042090,14.101878 11.422985,14.088424 12.377002,14.161734 
	C13.062423,14.729358 13.174723,15.210217 12.895304,15.824837 
	C12.079654,15.824191 11.655721,15.689785 11.016916,15.055669 
	C10.802046,14.555959 10.661196,14.115334 10.661196,14.115334 
z"/>
<path fill="#756448" opacity="1.000000" stroke="none" 
	d="
M12.505172,14.529948 
	C13.089542,15.070004 13.312359,15.724751 13.205391,16.809475 
	C12.655137,17.174385 12.434667,17.109320 12.214196,17.044256 
	C12.196728,16.860231 12.179260,16.676207 12.289742,16.246506 
	C12.326332,15.548765 12.234974,15.096702 12.505172,14.529948 
z"/>
<path fill="#110602" opacity="1.000000" stroke="none" 
	d="
M10.495275,14.087427 
	C10.661196,14.115334 10.802046,14.555959 10.794674,14.787764 
	C10.787302,15.019569 10.377058,15.010405 10.171041,15.004969 
	C9.972054,14.832203 9.979082,14.664875 9.992589,14.246342 
	C9.999067,13.995138 10.329353,14.059520 10.495275,14.087427 
z"/>
<path fill="#090401" opacity="1.000000" stroke="none" 
	d="
M12.848793,12.656911 
	C12.719838,12.699947 12.418439,12.580181 11.984785,12.243923 
	C12.150191,12.142292 12.424798,12.297852 12.848793,12.656911 
z"/>
<path fill="#080501" opacity="1.000000" stroke="none" 
	d="
M26.263031,6.050094 
	C26.282389,6.049626 26.303171,5.999860 26.273769,5.989344 
	C26.244370,5.978827 26.222448,5.998375 26.209751,5.973091 
	C26.197054,5.947807 26.243675,6.050561 26.263031,6.050094 
z"/>
<path fill="#080501" opacity="1.000000" stroke="none" 
	d="
M25.795952,3.147206 
	C25.987848,3.009258 25.994900,3.506072 25.998520,3.754513 
	C25.834627,4.003979 25.667114,4.005003 25.248291,4.006216 
	C25.159304,3.732289 25.361662,3.491872 25.795952,3.147206 
z"/>
<path fill="#0B0D0E" opacity="1.000000" stroke="none" 
	d="
M11.918116,17.085335 
	C12.434667,17.109320 12.655137,17.174385 13.206868,17.335159 
	C13.538129,17.430866 13.559984,17.535049 13.670658,17.727127 
	C13.781331,17.919203 13.966880,18.225752 14.020826,18.478193 
	C14.442735,19.200571 14.810696,19.670507 15.178658,20.140444 
	C15.445345,19.805069 15.712031,19.469696 15.978719,19.134321 
	C18.163191,19.810234 18.648178,20.994974 16.973959,23.155281 
	C16.872911,23.514635 16.915571,23.447866 16.748560,23.690125 
	C16.331135,24.285175 16.080723,24.637966 15.477414,24.990097 
	C14.418999,24.999189 13.713480,25.008945 13.007960,25.018700 
	C12.537272,22.389467 6.173940,20.795012 11.918116,17.085335 
z"/>
<path fill="#160500" opacity="1.000000" stroke="none" 
	d="
M12.868702,25.210455 
	C13.713480,25.008945 14.418999,24.999189 15.491549,25.343410 
	C15.720487,26.140213 15.582394,26.583042 15.444300,27.025871 
	C15.349467,27.171324 15.240663,27.305490 15.096466,27.456829 
	C14.089965,27.527586 13.104880,27.569887 11.676897,27.425148 
	C11.233998,27.238110 11.287276,26.949568 11.428460,26.810303 
	C11.747875,26.473099 11.894153,26.253841 12.008475,26.013266 
	C12.281548,25.848219 12.521870,25.644535 12.868702,25.210455 
z"/>
<path fill="#080500" opacity="1.000000" stroke="none" 
	d="
M11.630314,26.009636 
	C11.894153,26.253841 11.747875,26.473099 10.960552,26.785404 
	C9.731917,26.930637 9.112375,26.961504 8.492833,26.992371 
	C7.792494,26.797953 7.092155,26.603535 6.198256,26.210571 
	C6.004694,26.012026 6.001809,25.995937 6.376556,25.994492 
	C7.495482,25.989901 8.239661,25.986753 8.983841,25.983606 
	C9.739945,25.991072 10.496049,25.998539 11.630314,26.009636 
z"/>
<path fill="#0F1511" opacity="1.000000" stroke="none" 
	d="
M8.771755,25.789585 
	C8.239661,25.986753 7.495482,25.989901 6.379239,25.987831 
	C6.858006,25.853600 7.708838,25.724581 8.771755,25.789585 
z"/>
<path fill="#0B0902" opacity="1.000000" stroke="none" 
	d="
M44.702339,42.079300 
	C44.996387,42.448406 44.992626,42.898640 44.800522,43.820415 
	C44.379856,44.491611 44.182537,44.721340 44.020226,44.981140 
	C44.020226,44.981140 44.007275,44.995152 44.003487,45.005127 
	C43.743046,44.800858 43.486397,44.586609 43.070946,44.176224 
	C43.409607,43.373539 43.907066,42.766987 44.702339,42.079300 
z"/>
<path fill="#61481A" opacity="1.000000" stroke="none" 
	d="
M39.095394,42.487232 
	C39.191494,42.663895 39.287598,42.840553 39.177116,43.237022 
	C38.814381,43.578423 38.658237,43.700016 38.255211,43.656929 
	C37.706451,43.100594 37.404568,42.708935 37.648289,42.310875 
	C38.494392,42.365395 38.794891,42.426315 39.095394,42.487232 
z"/>
<path fill="#B09D7F" opacity="1.000000" stroke="none" 
	d="
M40.414806,44.382641 
	C40.753078,43.844269 41.060383,43.732277 41.824959,43.798790 
	C41.649429,44.254539 41.016632,44.531780 40.414806,44.382641 
z"/>
<path fill="#110302" opacity="1.000000" stroke="none" 
	d="
M32.515579,38.030632 
	C32.515579,38.030632 32.498299,38.003788 32.874863,38.114285 
	C33.501938,38.325417 33.752453,38.426048 34.002972,38.526684 
	C34.002972,38.526684 33.988838,38.724724 33.986732,38.823349 
	C32.843540,39.531822 31.702448,40.141678 30.086494,41.030579 
	C29.375448,41.514004 29.187531,41.755886 29.047882,42.035278 
	C29.071898,42.480183 29.095911,42.925083 29.103512,43.815651 
	C29.087095,44.261318 29.020103,44.498322 28.999950,44.452797 
	C28.979799,44.407269 28.882084,44.426434 28.882084,44.426434 
	C28.770515,44.277935 28.658947,44.129433 28.289570,43.879047 
	C27.858484,43.813244 27.685209,43.849323 27.806831,43.949051 
	C28.080687,43.502720 28.059641,42.992733 28.038597,42.482750 
	C28.038597,42.482750 28.053642,42.550858 28.063198,42.584412 
	C28.067944,41.712925 28.063131,40.807880 28.034077,39.450981 
	C28.009832,38.999123 28.002859,38.971756 28.002859,38.971756 
	C28.616932,38.924480 29.231005,38.877201 30.450138,38.570206 
	C31.541992,38.217197 32.028786,38.123913 32.515579,38.030632 
z"/>
<path fill="#0B0200" opacity="1.000000" stroke="none" 
	d="
M29.020103,44.498322 
	C29.020103,44.498322 29.087095,44.261318 29.136440,44.148216 
	C29.185783,44.035110 29.591764,43.997990 29.798401,44.245888 
	C30.009600,44.664665 30.014162,44.835541 30.018723,45.006416 
	C30.018723,45.006416 30.015945,45.500053 30.015091,45.746773 
	C30.014235,45.993488 29.688551,45.997589 29.449692,45.620956 
	C29.147255,44.995655 29.083679,44.746990 29.020103,44.498322 
z"/>
<path fill="#11100D" opacity="1.000000" stroke="none" 
	d="
M30.158039,44.895302 
	C30.014162,44.835541 30.009600,44.664665 30.002054,44.237209 
	C30.098497,44.248486 30.197927,44.516335 30.158039,44.895302 
z"/>
<path fill="#AD9F6C" opacity="1.000000" stroke="none" 
	d="
M34.921852,39.231251 
	C35.509041,38.937359 36.474209,38.880310 37.498642,39.430756 
	C36.805218,39.848194 36.052521,39.658146 34.921852,39.231251 
z"/>
<path fill="#877A53" opacity="1.000000" stroke="none" 
	d="
M39.178139,42.424988 
	C38.794891,42.426315 38.494392,42.365395 37.785088,42.093681 
	C37.214714,41.426682 37.053150,40.970474 37.187202,40.265701 
	C37.694454,39.795273 37.906086,39.573418 38.573586,39.412323 
	C39.093384,39.628906 39.157318,39.784729 39.175781,40.623184 
	C39.137989,41.599129 39.145672,41.892441 39.153358,42.185753 
	C39.153358,42.185753 39.260883,42.362740 39.178139,42.424988 
z"/>
<path fill="#11100D" opacity="1.000000" stroke="none" 
	d="
M29.224981,41.889328 
	C29.187531,41.755886 29.375448,41.514004 29.797195,41.173481 
	C29.822294,41.299908 29.628736,41.535252 29.224981,41.889328 
z"/>
<path fill="#988565" opacity="1.000000" stroke="none" 
	d="
M39.524559,42.099014 
	C39.145672,41.892441 39.137989,41.599129 39.106987,40.866287 
	C39.354362,40.955261 39.625061,41.483765 39.524559,42.099014 
z"/>
<path fill="#010401" opacity="1.000000" stroke="none" 
	d="
M44.203392,44.845959 
	C44.182537,44.721340 44.379856,44.491611 44.796043,44.158054 
	C44.816429,44.282673 44.618645,44.511547 44.203392,44.845959 
z"/>
<path fill="#0C0600" opacity="1.000000" stroke="none" 
	d="
M32.420929,34.018112 
	C32.420929,34.018112 32.090992,34.342232 31.817240,34.457161 
	C31.543488,34.572090 31.141903,34.725101 30.821022,34.780312 
	C30.288528,34.883862 30.076916,34.932194 29.712891,35.078236 
	C29.363956,35.319611 29.191851,35.488209 29.044165,35.681732 
	C28.863842,35.717026 28.683521,35.752319 28.227982,35.799072 
	C28.248213,34.573250 28.543661,33.335968 29.419289,31.369926 
	C29.756136,29.908037 29.512804,29.174911 29.450180,28.856121 
	C29.788397,28.855091 29.945906,28.439726 30.054684,28.054890 
	C30.005955,28.085419 30.068245,28.182095 30.325138,28.428062 
	C30.757725,28.514807 30.933416,28.355585 31.154186,28.260757 
	C31.199266,28.325153 31.362162,28.232227 31.362162,28.232227 
	C31.362162,28.232227 31.110609,28.048779 31.041904,27.789089 
	C30.996796,27.351879 31.020390,27.174358 31.043985,26.996836 
	C31.736994,26.997948 32.430004,26.999060 33.557465,27.247910 
	C34.071503,27.651684 34.151081,27.807720 34.208397,28.389130 
	C34.108727,30.212305 34.031311,31.610104 33.953899,33.007904 
	C33.953899,33.007904 34.013878,33.004158 33.660599,32.933632 
	C33.011856,33.248108 32.716393,33.633110 32.420929,34.018112 
z"/>
<path fill="#0A0600" opacity="1.000000" stroke="none" 
	d="
M23.015881,24.180984 
	C23.310026,23.279896 23.616196,22.551170 24.391365,21.470497 
	C25.930748,21.046671 27.001133,20.974794 28.078407,20.922504 
	C28.085295,20.942095 28.044441,20.946234 28.044441,20.946234 
	C27.797398,21.952990 27.550352,22.959747 27.090258,24.239685 
	C26.877207,24.512869 26.861963,24.604025 26.471149,24.417126 
	C25.876638,24.441940 25.672941,24.653652 25.032797,24.760956 
	C24.588537,25.445404 24.580727,26.234261 24.550632,26.996653 
	C24.528347,26.970190 24.474653,27.013832 24.376568,26.340019 
	C23.927752,25.378023 23.577021,25.089838 23.198597,24.784817 
	C23.170908,24.767982 23.054888,24.697861 23.054888,24.697861 
	C23.054888,24.697861 23.027906,24.353350 23.015881,24.180984 
z"/>
<path fill="#2A1400" opacity="1.000000" stroke="none" 
	d="
M24.474653,27.013832 
	C24.474653,27.013832 24.528347,26.970190 24.856342,27.025600 
	C25.384718,27.119377 25.585096,27.157742 25.841805,27.505339 
	C25.989674,28.221762 26.081215,28.628956 26.132404,29.414841 
	C26.051413,30.044153 26.010773,30.294771 25.970135,30.545389 
	C22.646748,32.142334 22.608957,29.556498 22.796255,27.390457 
	C23.798805,27.171738 24.136728,27.092785 24.474653,27.013832 
z"/>
<path fill="#755B34" opacity="1.000000" stroke="none" 
	d="
M29.269470,28.441786 
	C29.512804,29.174911 29.756136,29.908037 29.497147,31.060665 
	C28.398163,31.320129 27.801500,31.160093 27.091061,30.345455 
	C26.931370,29.476326 26.885460,29.261801 27.060986,28.909698 
	C27.495777,28.502411 27.709135,28.232706 28.361420,28.011494 
	C29.089025,28.117756 29.377701,28.175526 29.581158,28.312086 
	C29.495941,28.390879 29.269470,28.441786 29.269470,28.441786 
z"/>
<path fill="#AA9560" opacity="1.000000" stroke="none" 
	d="
M16.094944,27.251236 
	C15.582394,26.583042 15.720487,26.140213 15.844445,25.344070 
	C16.080723,24.637966 16.331135,24.285175 16.787071,23.680826 
	C19.853643,24.958010 18.357929,26.220863 16.094944,27.251236 
z"/>
<path fill="#9A8B62" opacity="1.000000" stroke="none" 
	d="
M27.702009,36.210991 
	C27.511101,36.265213 27.012691,36.379246 26.329205,36.414268 
	C26.560923,36.313778 26.977716,36.292294 27.702009,36.210991 
z"/>
<path fill="#9A8B62" opacity="1.000000" stroke="none" 
	d="
M23.342918,36.879658 
	C22.966061,36.992275 22.775459,36.990444 22.298939,36.987350 
	C22.013021,36.986095 21.975485,36.510761 21.979443,36.272381 
	C22.443716,36.005367 22.904030,35.976730 23.706978,36.007248 
	C23.938240,36.345623 23.764761,36.578560 23.342918,36.879658 
z"/>
<path fill="#B49864" opacity="1.000000" stroke="none" 
	d="
M26.839548,29.047277 
	C26.885460,29.261801 26.931370,29.476326 27.190283,29.943264 
	C27.181925,30.325651 26.960566,30.455626 26.354671,30.565495 
	C26.010773,30.294771 26.051413,30.044153 26.299118,29.416069 
	C26.506182,29.038605 26.839548,29.047277 26.839548,29.047277 
z"/>
<path fill="#7A6B3A" opacity="1.000000" stroke="none" 
	d="
M20.858166,35.180508 
	C20.999853,35.632786 20.784496,35.876736 20.248131,36.148354 
	C20.034410,36.033405 20.045294,35.805767 20.050255,35.236225 
	C20.228725,34.948612 20.413124,35.002907 20.858166,35.180508 
z"/>
<path fill="#8A6F38" opacity="1.000000" stroke="none" 
	d="
M24.376568,26.340019 
	C24.136728,27.092785 23.798805,27.171738 22.956030,27.123857 
	C22.565784,26.676821 22.680387,26.356619 22.965294,25.503590 
	C23.135595,24.970766 23.226288,24.801651 23.226288,24.801651 
	C23.577021,25.089838 23.927752,25.378023 24.376568,26.340019 
z"/>
<path fill="#2A1400" opacity="1.000000" stroke="none" 
	d="
M23.198597,24.784817 
	C23.226288,24.801651 23.135595,24.970766 23.045502,24.999794 
	C22.955410,25.028824 22.999105,24.863438 23.026997,24.780649 
	C23.054888,24.697861 23.170908,24.767982 23.198597,24.784817 
z"/>
<path fill="#5E5436" opacity="1.000000" stroke="none" 
	d="
M28.999950,44.452797 
	C29.083679,44.746990 29.147255,44.995655 29.286839,45.621887 
	C29.362846,45.999454 29.267406,46.468838 29.184799,46.693512 
	C28.843611,46.865486 28.585032,46.812782 27.944920,46.865551 
	C27.900494,46.427258 28.237604,45.883488 28.728397,44.883080 
	C28.882084,44.426434 28.979799,44.407269 28.999950,44.452797 
z"/>
<path fill="#705B26" opacity="1.000000" stroke="none" 
	d="
M29.865301,34.980530 
	C30.076916,34.932194 30.288528,34.883862 30.920258,35.043873 
	C31.765100,35.474510 32.189831,35.696804 32.614559,35.919094 
	C32.723598,36.276966 32.832634,36.634842 32.728622,37.511673 
	C32.028786,38.123913 31.541992,38.217197 30.688143,38.368134 
	C30.264584,37.792664 30.208084,37.159534 30.010710,35.910526 
	C29.869835,35.294643 29.865301,34.980530 29.865301,34.980530 
z"/>
<path fill="#9C9062" opacity="1.000000" stroke="none" 
	d="
M27.238617,41.748997 
	C27.011641,42.057381 26.620138,41.934284 26.363747,41.294655 
	C26.498854,40.778126 26.677608,40.483379 26.677608,40.483379 
	C26.809771,40.761425 26.941931,41.039471 27.238617,41.748997 
z"/>
<path fill="#786624" opacity="1.000000" stroke="none" 
	d="
M26.592657,40.400345 
	C26.677608,40.483379 26.498854,40.778126 26.356750,40.874271 
	C26.214647,40.970417 26.059000,40.521248 26.084984,40.285843 
	C26.110966,40.050442 26.507706,40.317310 26.592657,40.400345 
z"/>
<path fill="#0E0600" opacity="1.000000" stroke="none" 
	d="
M29.712891,35.078236 
	C29.865301,34.980530 29.869835,35.294643 29.881514,35.451241 
	C29.893192,35.607838 29.476480,35.734783 29.260323,35.708260 
	C29.191851,35.488209 29.363956,35.319611 29.712891,35.078236 
z"/>
<path fill="#110302" opacity="1.000000" stroke="none" 
	d="
M27.997480,38.997238 
	C27.985128,38.995354 27.865171,38.722023 27.865171,38.722023 
	C27.865171,38.722023 27.816965,39.050900 27.909912,39.011330 
	C28.002859,38.971756 28.009832,38.999123 27.997480,38.997238 
z"/>
<path fill="#9C9062" opacity="1.000000" stroke="none" 
	d="
M27.734955,42.026958 
	C28.059641,42.992733 28.080687,43.502720 27.778774,44.213051 
	C27.218140,44.341373 26.980461,44.269344 26.384317,44.095963 
	C26.494339,43.186794 26.962826,42.378979 27.734955,42.026958 
z"/>
<path fill="#392E0F" opacity="1.000000" stroke="none" 
	d="
M8.534389,27.079897 
	C9.112375,26.961504 9.731917,26.930637 10.819368,26.924669 
	C11.287276,26.949568 11.233998,27.238110 11.202704,27.381466 
	C10.622694,27.511623 10.073977,27.498423 9.123714,27.389904 
	C8.722169,27.294588 8.575946,27.167423 8.534389,27.079897 
z"/>
<path fill="#756448" opacity="1.000000" stroke="none" 
	d="
M8.430719,27.573210 
	C8.570623,27.816193 8.646778,28.017551 8.841913,28.566629 
	C8.960893,28.914347 8.975080,28.998652 8.737719,28.997297 
	C8.500357,28.995943 8.025696,29.004150 8.025696,29.004150 
	C8.058613,28.792833 8.091530,28.581518 8.150002,28.049881 
	C8.175557,27.729563 8.366970,27.531586 8.430719,27.573210 
z"/>
<path fill="#ABA275" opacity="1.000000" stroke="none" 
	d="
M18.480635,38.309944 
	C18.071920,38.290966 17.860649,38.191147 17.304789,38.028435 
	C16.960197,37.965534 17.118517,37.708504 17.156742,37.562614 
	C17.581165,37.362541 17.967367,37.308361 18.632233,37.332069 
	C18.910898,37.409966 18.896208,37.709534 18.960161,37.844482 
	C19.024115,37.979435 18.678076,38.229103 18.480635,38.309944 
z"/>
<path fill="#7C6B3F" opacity="1.000000" stroke="none" 
	d="
M16.539204,37.952431 
	C16.836330,37.861275 16.903526,38.179100 16.665020,38.512383 
	C16.228991,38.929081 16.031464,39.012493 15.833935,39.095909 
	C15.833935,39.095909 15.604820,39.205505 15.533156,39.100559 
	C15.721687,38.678272 15.981883,38.360931 16.539204,37.952431 
z"/>
<path fill="#B39A68" opacity="1.000000" stroke="none" 
	d="
M10.391343,29.607912 
	C10.212791,29.825825 9.871422,29.886002 9.266207,29.974216 
	C9.002360,30.002253 9.000018,30.000017 9.016622,29.748940 
	C9.013844,29.331459 8.994463,29.165056 8.975080,28.998652 
	C8.975080,28.998652 8.960893,28.914347 8.956991,28.868345 
	C9.378236,29.031622 9.803381,29.240898 10.391343,29.607912 
z"/>
<path fill="#887753" opacity="1.000000" stroke="none" 
	d="
M18.773621,35.981949 
	C18.611116,35.999748 18.315207,35.791260 17.944656,35.314232 
	C18.126747,35.282349 18.383480,35.519001 18.773621,35.981949 
z"/>
<path fill="#ABA275" opacity="1.000000" stroke="none" 
	d="
M15.642725,39.512177 
	C16.031464,39.012493 16.228991,38.929081 16.697403,38.671547 
	C16.955698,38.762680 16.943106,39.027931 16.954021,39.691303 
	C16.468859,40.035767 15.960187,39.982105 15.642725,39.512177 
z"/>
<path fill="#917958" opacity="1.000000" stroke="none" 
	d="
M8.737719,28.997297 
	C8.994463,29.165056 9.013844,29.331459 9.016228,29.748535 
	C8.999229,29.999210 8.504223,30.019384 8.257159,30.011396 
	C8.005489,29.836700 8.000883,29.669991 8.010986,29.253716 
	C8.025696,29.004150 8.500357,28.995943 8.737719,28.997297 
z"/>
<path fill="#A57F6A" opacity="1.000000" stroke="none" 
	d="
M27.599068,16.008163 
	C27.824799,16.163065 27.910177,16.374613 27.937748,17.106960 
	C28.393587,18.011301 28.766882,18.451487 29.472322,19.169460 
	C30.092051,19.472239 30.379633,19.497231 30.667215,19.522224 
	C30.513971,19.867086 30.360727,20.211950 29.388012,20.470909 
	C28.367683,20.265408 28.166832,20.145815 27.502460,19.990696 
	C26.619801,19.599230 26.200659,19.243292 26.124424,18.636612 
	C26.638348,17.557623 26.809361,16.729376 27.142361,15.885616 
	C27.304348,15.870103 27.599068,16.008163 27.599068,16.008163 
z"/>
<path fill="#140500" opacity="1.000000" stroke="none" 
	d="
M25.023598,16.864721 
	C25.012489,16.150690 25.001379,15.436659 24.985657,14.365824 
	C25.128473,13.746899 25.310820,13.511873 25.813843,13.517736 
	C26.051041,13.972072 26.002483,14.212611 25.953924,14.453152 
	C25.953924,14.453152 25.949341,14.620795 26.084919,14.951015 
	C26.250259,15.464053 26.280018,15.646871 26.170502,16.048285 
	C26.009563,16.438591 25.987900,16.610302 25.724680,16.942020 
	C25.308046,17.183636 25.132969,17.265244 24.992975,17.228863 
	C25.028061,17.110872 25.023596,16.864721 25.023598,16.864721 
z"/>
<path fill="#7E6732" opacity="1.000000" stroke="none" 
	d="
M29.140175,18.891674 
	C28.766882,18.451487 28.393587,18.011301 27.966953,17.284866 
	C28.401480,17.262964 28.889347,17.527309 29.637527,17.896358 
	C29.990236,18.170326 30.082628,18.339588 30.341434,18.745113 
	C30.507847,18.981377 30.578091,19.123354 30.183472,19.075159 
	C29.572626,18.981869 29.356401,18.936771 29.140175,18.891674 
z"/>
<path fill="#D6C8AD" opacity="1.000000" stroke="none" 
	d="
M26.284491,14.853373 
	C26.002483,14.212611 26.051041,13.972072 25.990656,13.380980 
	C25.881712,13.030427 25.999683,13.182355 26.381498,13.001990 
	C26.932848,12.684554 27.102381,12.547482 27.271915,12.410412 
	C27.052963,13.358139 26.834011,14.305865 26.284491,14.853373 
z"/>
<path fill="#D6C8AD" opacity="1.000000" stroke="none" 
	d="
M26.309776,15.829688 
	C26.280018,15.646871 26.250259,15.464053 26.088211,15.034803 
	C26.558977,14.813216 27.162033,14.838060 27.682077,15.435534 
	C27.599068,16.008163 27.304348,15.870103 26.981663,15.802946 
	C26.658976,15.735789 26.309776,15.829688 26.309776,15.829688 
z"/>
<path fill="#917958" opacity="1.000000" stroke="none" 
	d="
M27.221056,12.419355 
	C27.102381,12.547482 26.932848,12.684554 26.462990,12.950910 
	C26.072887,12.882422 25.983112,12.684651 26.246891,12.334749 
	C26.773310,12.294418 26.946173,12.406219 27.119038,12.518020 
	C27.119038,12.518020 27.170197,12.428300 27.221056,12.419355 
z"/>
<path fill="#D6C8AD" opacity="1.000000" stroke="none" 
	d="
M27.316326,12.121244 
	C26.946173,12.406219 26.773310,12.294418 26.336185,12.021435 
	C26.039249,11.626479 26.006573,11.392709 25.945889,10.806086 
	C26.183786,10.384050 26.449696,10.314869 26.837812,10.639050 
	C27.144550,11.263098 27.329082,11.493784 27.316326,12.121244 
z"/>
<path fill="#8E7C4C" opacity="1.000000" stroke="none" 
	d="
M27.421108,10.976381 
	C26.987177,10.347601 26.946714,9.741808 27.443363,9.329950 
	C27.925175,10.015714 27.869875,10.507541 27.421108,10.976381 
z"/>
<path fill="#AC9265" opacity="1.000000" stroke="none" 
	d="
M34.282452,33.260406 
	C34.031311,31.610104 34.108727,30.212305 34.362457,28.143345 
	C34.268784,26.633539 33.998795,25.794895 33.728802,24.956253 
	C33.728802,24.956253 33.386292,24.645100 33.352497,24.416765 
	C33.856750,24.135824 34.394794,24.083218 35.337547,24.016426 
	C35.828461,24.164888 35.914665,24.327532 35.992668,24.766178 
	C36.113575,25.518831 36.242691,25.995485 36.530853,26.665501 
	C37.225395,27.242287 37.760883,27.625710 38.626408,28.353561 
	C38.910892,29.058668 38.865349,29.419346 38.578209,29.823360 
	C37.908707,30.082741 37.480808,30.298782 37.052906,30.514822 
	C36.695911,31.107553 36.338921,31.700283 36.026005,32.654442 
	C35.583725,33.181545 35.097363,33.347225 34.282452,33.260406 
z"/>
<path fill="#7E6647" opacity="1.000000" stroke="none" 
	d="
M29.666374,28.233294 
	C29.377701,28.175526 29.089025,28.117756 28.290382,27.926670 
	C27.780416,27.793356 27.633011,27.626654 27.605358,27.358768 
	C27.423416,26.763573 27.269125,26.436262 27.491066,26.028288 
	C28.123346,25.932034 28.379393,25.916447 28.635441,25.900860 
	C29.061333,26.092304 29.487226,26.283751 29.910397,26.981518 
	C29.961197,27.719257 30.014721,27.950676 30.068245,28.182095 
	C30.068245,28.182095 30.005955,28.085419 29.946495,28.109592 
	C29.887037,28.133766 29.666374,28.233294 29.666374,28.233294 
z"/>
<path fill="#9C8454" opacity="1.000000" stroke="none" 
	d="
M33.768581,25.297203 
	C33.998795,25.794895 34.268784,26.633539 34.384712,27.717968 
	C34.151081,27.807720 34.071503,27.651684 33.903969,27.248016 
	C33.813469,26.546307 33.810913,26.092232 33.768581,25.297203 
z"/>
<path fill="#977E48" opacity="1.000000" stroke="none" 
	d="
M29.472322,19.169460 
	C29.356401,18.936771 29.572626,18.981869 30.116432,19.117336 
	C30.444014,19.207706 30.695934,19.425014 30.681576,19.473619 
	C30.379633,19.497231 30.092051,19.472239 29.472322,19.169460 
z"/>
<path fill="#BAA98D" opacity="1.000000" stroke="none" 
	d="
M30.325138,28.428062 
	C30.014721,27.950676 29.961197,27.719257 29.690552,27.205357 
	C29.740467,26.822725 30.007504,26.722578 30.659264,26.809631 
	C31.020390,27.174358 30.996796,27.351879 31.003368,27.825596 
	C31.033535,28.121792 31.109106,28.196363 31.109106,28.196363 
	C30.933416,28.355585 30.757725,28.514807 30.325138,28.428062 
z"/>
<path fill="#927B5B" opacity="1.000000" stroke="none" 
	d="
M26.922997,24.506634 
	C27.529678,24.639437 28.090572,24.778475 28.643456,25.409187 
	C28.379393,25.916447 28.123346,25.932034 27.465565,26.002415 
	C27.063829,26.057209 27.032309,25.979536 26.928062,25.643295 
	C26.836535,25.072708 26.849249,24.838366 26.861963,24.604025 
	C26.861963,24.604025 26.877207,24.512869 26.922997,24.506634 
z"/>
<path fill="#977E48" opacity="1.000000" stroke="none" 
	d="
M27.965981,20.026224 
	C28.166832,20.145815 28.367683,20.265408 28.838968,20.608692 
	C29.109400,20.832380 28.768246,20.951954 28.768246,20.951954 
	C28.768246,20.951954 28.406773,20.946726 28.225607,20.946480 
	C28.044441,20.946234 28.085295,20.942095 28.042494,20.704678 
	C27.999693,20.467260 27.965981,20.026224 27.965981,20.026224 
z"/>
<path fill="#5C4614" opacity="1.000000" stroke="none" 
	d="
M32.654282,35.636337 
	C32.189831,35.696804 31.765100,35.474510 31.241138,34.988663 
	C31.141903,34.725101 31.543488,34.572090 31.758118,34.557003 
	C32.213165,34.812469 32.453583,35.083023 32.654282,35.636337 
z"/>
<path fill="#AC9265" opacity="1.000000" stroke="none" 
	d="
M32.893143,34.214920 
	C32.716393,33.633110 33.011856,33.248108 33.669128,32.904823 
	C33.809078,33.434933 33.587219,33.923328 32.893143,34.214920 
z"/>
<path fill="#5C4614" opacity="1.000000" stroke="none" 
	d="
M34.231636,38.152908 
	C33.752453,38.426048 33.501938,38.325417 32.860031,38.120186 
	C33.132526,37.936775 33.796413,37.857952 34.231636,38.152908 
z"/>
<path fill="#706B58" opacity="1.000000" stroke="none" 
	d="
M38.725204,15.690233 
	C38.445477,15.842532 37.989368,15.828147 37.190121,15.795206 
	C36.905376,15.459895 37.070396,15.214956 37.561623,14.983820 
	C38.065811,15.088164 38.321686,15.287413 38.725204,15.690233 
z"/>
<path fill="#706B58" opacity="1.000000" stroke="none" 
	d="
M39.984005,13.748701 
	C39.815216,13.985479 39.642250,13.982716 39.210129,13.968395 
	C39.135792,13.681858 39.320602,13.406878 39.755737,13.081310 
	C40.006058,13.030724 39.979828,13.509160 39.984005,13.748701 
z"/>
<path fill="#A1834F" opacity="1.000000" stroke="none" 
	d="
M37.464035,30.575981 
	C37.480808,30.298782 37.908707,30.082741 38.909683,29.820210 
	C40.037792,29.440441 40.592827,29.107162 41.369667,28.813065 
	C41.591469,28.852242 42.010052,29.018726 42.010052,29.018726 
	C42.010052,29.018726 42.002930,28.999413 41.961609,29.246897 
	C41.945778,29.662802 41.971264,29.831221 41.996746,29.999641 
	C41.996746,29.999641 42.002552,30.493061 41.997894,30.739727 
	C40.620544,30.869976 39.247856,30.753557 37.464035,30.575981 
z"/>
<path fill="#7E6732" opacity="1.000000" stroke="none" 
	d="
M41.959827,28.718353 
	C42.010052,29.018726 41.591469,28.852242 41.185852,28.661747 
	C40.500072,28.319199 40.253124,28.124929 40.039394,27.888443 
	C40.458740,27.825491 40.878082,27.762541 41.613258,27.754395 
	C41.922592,28.012127 41.916100,28.215054 41.959827,28.718353 
z"/>
<path fill="#7E6732" opacity="1.000000" stroke="none" 
	d="
M42.140831,29.895500 
	C41.971264,29.831221 41.945778,29.662802 41.953255,29.240892 
	C42.085789,29.255388 42.185352,29.523373 42.140831,29.895500 
z"/>
<path fill="#A28E4D" opacity="1.000000" stroke="none" 
	d="
M39.763668,27.905548 
	C40.253124,28.124929 40.500072,28.319199 40.964050,28.622570 
	C40.592827,29.107162 40.037792,29.440441 39.151283,29.776871 
	C38.865349,29.419346 38.910892,29.058668 38.970661,28.424555 
	C39.152569,28.074965 39.320255,27.998808 39.763668,27.905548 
z"/>
<path fill="#271700" opacity="1.000000" stroke="none" 
	d="
M27.502460,19.990696 
	C27.965981,20.026224 27.999693,20.467260 28.035606,20.685089 
	C27.001133,20.974794 25.930748,21.046671 24.463043,21.182755 
	C23.620871,20.724653 23.176020,20.202345 22.674961,19.336601 
	C22.642767,18.661394 22.789278,18.397682 23.485720,18.358486 
	C24.107840,18.383610 24.302530,18.252274 24.735645,18.556112 
	C25.280001,18.865124 25.585930,18.738960 25.832005,18.636089 
	C25.772150,18.659384 25.781517,18.887354 25.781517,18.887354 
	C26.200659,19.243292 26.619801,19.599230 27.502460,19.990696 
z"/>
<path fill="#080500" opacity="1.000000" stroke="none" 
	d="
M15.874073,18.981422 
	C15.712031,19.469696 15.445345,19.805069 15.178658,20.140444 
	C14.810696,19.670507 14.442735,19.200571 14.270920,18.489929 
	C14.633278,18.263988 14.799488,18.278751 14.965699,18.293516 
	C14.965699,18.293516 15.231455,18.481985 15.392815,18.504436 
	C15.554175,18.526890 15.769426,18.828522 15.874073,18.981422 
z"/>
<path fill="#7E6732" opacity="1.000000" stroke="none" 
	d="
M24.497219,18.120937 
	C24.302530,18.252274 24.107840,18.383610 23.687639,18.244289 
	C23.578497,17.851204 23.694868,17.728775 23.942871,17.389614 
	C24.074503,17.172880 24.558193,17.046448 24.790894,16.955585 
	C25.023596,16.864721 25.028061,17.110872 24.890797,17.430161 
	C24.753532,17.749451 24.497219,18.120937 24.497219,18.120937 
z"/>
<path fill="#756448" opacity="1.000000" stroke="none" 
	d="
M14.918844,18.126663 
	C14.799488,18.278751 14.633278,18.263988 14.216973,18.237488 
	C13.966880,18.225752 13.781331,17.919203 13.717855,17.751728 
	C13.829094,17.576796 14.003806,17.569338 14.437746,17.611252 
	C14.696976,17.660625 14.871988,17.959810 14.918844,18.126663 
z"/>
<path fill="#140500" opacity="1.000000" stroke="none" 
	d="
M31.072071,28.085285 
	C31.110609,28.048779 31.362162,28.232227 31.362162,28.232227 
	C31.362162,28.232227 31.199266,28.325153 31.154186,28.260757 
	C31.109106,28.196363 31.033535,28.121792 31.072071,28.085285 
z"/>
<path fill="#988565" opacity="1.000000" stroke="none" 
	d="
M29.581158,28.312086 
	C29.666374,28.233294 29.887037,28.133766 29.995226,28.079063 
	C29.945906,28.439726 29.788397,28.855091 29.450180,28.856121 
	C29.269470,28.441786 29.495941,28.390879 29.581158,28.312086 
z"/>
<path fill="#8A6F38" opacity="1.000000" stroke="none" 
	d="
M25.785477,27.196108 
	C25.585096,27.157742 25.384718,27.119377 24.878628,27.052063 
	C24.580727,26.234261 24.588537,25.445404 25.380281,24.948772 
	C26.336437,25.439608 26.508659,25.638218 26.457401,26.092865 
	C26.162132,26.560520 26.090340,26.772133 25.960407,27.036978 
	C25.902267,27.090208 25.785477,27.196108 25.785477,27.196108 
z"/>
<path fill="#B49864" opacity="1.000000" stroke="none" 
	d="
M26.680880,25.836826 
	C26.508659,25.638218 26.336437,25.439608 25.816730,25.053181 
	C25.672941,24.653652 25.876638,24.441940 26.471149,24.417126 
	C26.849249,24.838366 26.836535,25.072708 26.909569,25.652050 
	C26.995321,25.997047 26.957663,26.020832 26.900265,25.957085 
	C26.842867,25.893335 26.680880,25.836826 26.680880,25.836826 
z"/>
<path fill="#8A6F38" opacity="1.000000" stroke="none" 
	d="
M27.060986,28.909698 
	C26.839548,29.047277 26.506182,29.038605 26.339470,29.037376 
	C26.081215,28.628956 25.989674,28.221762 25.841805,27.505339 
	C25.785477,27.196108 25.902267,27.090208 26.203907,27.059841 
	C26.505547,27.029474 26.994661,27.011284 27.086365,27.130959 
	C27.306320,27.404295 27.457968,27.529634 27.633011,27.626654 
	C27.633011,27.626654 27.780416,27.793356 27.851454,27.878178 
	C27.709135,28.232706 27.495777,28.502411 27.060986,28.909698 
z"/>
<path fill="#7E6732" opacity="1.000000" stroke="none" 
	d="
M26.124424,18.636612 
	C25.781517,18.887354 25.772150,18.659384 25.862629,18.178753 
	C25.957487,17.392752 25.961863,17.087381 25.966238,16.782011 
	C25.987900,16.610302 26.009563,16.438591 26.170502,16.048285 
	C26.309776,15.829688 26.658976,15.735789 26.819675,15.818459 
	C26.809361,16.729376 26.638348,17.557623 26.124424,18.636612 
z"/>
<path fill="#997D51" opacity="1.000000" stroke="none" 
	d="
M25.724680,16.942020 
	C25.961863,17.087381 25.957487,17.392752 25.922483,18.155460 
	C25.585930,18.738960 25.280001,18.865124 24.735645,18.556112 
	C24.497219,18.120937 24.753532,17.749451 24.855711,17.548153 
	C25.132969,17.265244 25.308046,17.183636 25.724680,16.942020 
z"/>
<path fill="#B49864" opacity="1.000000" stroke="none" 
	d="
M27.605358,27.358768 
	C27.457968,27.529634 27.306320,27.404295 27.079796,26.883175 
	C26.981525,26.515715 26.957663,26.020832 26.957663,26.020832 
	C26.957663,26.020832 26.995321,25.997047 27.013815,25.988293 
	C27.032309,25.979536 27.063829,26.057209 27.089333,26.083080 
	C27.269125,26.436262 27.423416,26.763573 27.605358,27.358768 
z"/>
<path fill="#927B5B" opacity="1.000000" stroke="none" 
	d="
M26.900265,25.957085 
	C26.957663,26.020832 26.981525,26.515715 26.988094,26.763500 
	C26.994661,27.011284 26.505547,27.029474 26.262047,27.006611 
	C26.090340,26.772133 26.162132,26.560520 26.457401,26.092865 
	C26.680880,25.836826 26.842867,25.893335 26.900265,25.957085 
z"/>
</svg>